# AST/ASF file generated using VICON BodyLanguage
# -----------------------------------------------
:version 1.10
:name VICON
:units
  mass 1.0
  length 0.45
  angle deg
:documentation
   .ast/.asf automatically generated from VICON data using
   VICON BodyBuilder and BodyLanguage model FoxedUp or BRILLIANT.MOD
:root
   order TX TY TZ RX RY RZ
   axis XYZ
   position 0 0 0  
   orientation 0 0 0 
:bonedata
  begin
     id 1 
     name lhipjoint
     direction 0.78388 -0.462562 0.414208 
     length 3.01181 
     axis 0 0 0  XYZ
  end
  begin
     id 2 
     name lfemur
     direction 0.34202 -0.939693 0  
     length 6.04673  
     axis 0 0 20  XYZ
    dof rx ry rz
    limits (-160.0 20.0)
           (-70.0 70.0)
           (-60.0 70.0)
  end
  begin
     id 3 
     name ltibia
     direction 0.34202 -0.939693 0   
     length 7.211   
     axis 0 0 20   XYZ
    dof rx
    limits (-10.0 170.0)
  end
  begin
     id 4 
     name lfoot
     direction 0.121887 -0.334882 0.934344   
     length 2.13567   
     axis -90 7.62852e-016 20   XYZ
    dof rx rz
    limits (-45.0 90.0)
           (-70.0 20.0)
  end
  begin
     id 5 
     name ltoes
     direction 1.53555e-011 -4.2179e-011 1   
     length 1.05957   
     axis -90 7.62852e-016 20   XYZ
    dof rx
    limits (-90.0 20.0)
  end
  begin
     id 6 
     name rhipjoint
     direction -0.769387 -0.475875 0.426129   
     length 2.92756  
     axis 0 0 0  XYZ 
  end
  begin
     id 7 
     name rfemur
     direction -0.34202 -0.939693 0   
     length 6.35468   
     axis 0 0 -20   XYZ
    dof rx ry rz
    limits (-160.0 20.0)
           (-70.0 70.0)
           (-70.0 60.0)
  end
  begin
     id 8 
     name rtibia
     direction -0.34202 -0.939693 0   
     length 7.37886   
     axis 0 0 -20   XYZ
    dof rx
    limits (-10.0 170.0)
 end
 begin
     id 9 
     name rfoot
     direction -0.101763 -0.279592 0.954711   
     length 2.21478  
     axis -90 -7.62852e-016 -20   XYZ
    dof rx rz
    limits (-45.0 90.0)
           (-20.0 70.0)
  end
  begin
     id 10 
     name rtoes
     direction -1.53494e-011 -4.21851e-011 1   
     length 1.10506   
     axis -90 -7.62852e-016 -20   XYZ
    dof rx
    limits (-90.0 20.0)
  end
  begin
     id 11 
     name lowerback
     direction 0.00747405 0.999267 0.0375481   
     length 2.13259   
     axis 0 0 0   XYZ
    dof rx ry rz
    limits (-20.0 45.0)
           (-30.0 30.0)
           (-30.0 30.0)
  end
  begin
     id 12 
     name upperback
     direction 0.00661626 0.996177 0.0871029   
     length 2.10528   
     axis 0 0 0   XYZ
    dof rx ry rz
    limits (-20.0 45.0)
           (-30.0 30.0)
           (-30.0 30.0)
  end
  begin
     id 13 
     name thorax
     direction 0.00320659 0.997679 0.0680167   
     length 2.11338   
     axis 0 0 0   XYZ
    dof rx ry rz
    limits (-20.0 45.0)
           (-30.0 30.0)
           (-30.0 30.0)
  end
  begin
     id 14 
     name lowerneck
     direction 0.0374841 0.973033 0.227602   
     length 1.42765   
     axis 0 0 0   XYZ
    dof rx ry rz
    limits (-20.0 45.0)
           (-30.0 30.0)
           (-30.0 30.0)
  end
  begin
     id 15 
     name upperneck
     direction 0.00481585 0.989155 -0.146795   
     length 1.47593   
     axis 0 0 0   XYZ
    dof rx ry rz
    limits (-20.0 45.0)
           (-30.0 30.0)
           (-30.0 30.0)
  end
  begin
     id 16
     name head
     direction -0.00292522 0.997206 -0.0746423  
     length 1.48116  
     axis 0 0 0   XYZ
    dof rx ry rz
    limits (-20.0 45.0)
           (-30.0 30.0)
           (-30.0 30.0)
  end
  begin
     id 17 
     name lclavicle
     direction 0.951444 0.305606 0.0368784  
     length 3.01855  
     axis 0 0 0   XYZ
    dof ry rz
    limits (-20.0 10.0)
           (0.0 20.0)
  end
  begin
     id 18 
     name lhumerus
     direction 1 -4.48977e-011 2.61664e-027   
     length 5.52731   
     axis 180 -30 -90   XYZ
    dof rx ry rz
    limits (-60.0 90.0)
           (-90.0 90.0)
           (-90.0 90.0)
  end
  begin
     id 19
     name lradius
     direction 1 -4.48944e-011 8.22157e-027   
     length 3.11059   
     axis 180 -30 -90   XYZ
    dof rx
    limits (-10.0 170.0)
  end
  begin
     id 20
     name lwrist
     direction 1 -4.48976e-011 1.5779e-026   
     length 1.5553   
     axis -1.15221e-014 90 90   XYZ
    dof ry
    limits (-180.0 0.0)
 end
  begin
     id 21 
     name lhand
     direction 1 -4.49025e-011 3.1558e-026   
     length 0.419626   
     axis -2.01367e-014 90 90   XYZ
    dof rx rz
    limits (-90.0 90.0)
           (-45.0 45.0)
  end
  begin
     id 22 
     name lfingers
     direction 1 -4.4904e-011 6.31161e-026   
     length 0.338313   
     axis -4.02734e-014 90 90   XYZ
    dof rx
    limits (0.0 90.0)
  end
  begin
     id 23
     name lthumb
     direction 0.707107 -6.35004e-011 0.707107   
     length 0.485752   
     axis -90 45 2.85299e-015   XYZ
    dof rx rz
    limits (-45.0 45.0)
           (-45.0 45.0)
  end
  begin
     id 24 
     name rclavicle
     direction -0.968876 0.223791 0.105816   
     length 3.04177  
     axis 0 0 0   XYZ 
    dof ry rz
    limits (-10.0 20.0)
           (-20.0 0.0)
  end
  begin
     id 25 
     name rhumerus
     direction -1 -4.48962e-011 -1.01384e-027  
     length 5.25396   
     axis 180 30 90   XYZ
    dof rx ry rz
    limits (-90.0 60.0)
           (-90.0 90.0)
           (-90.0 90.0)
  end
  begin
     id 26 
     name rradius
     direction -1 -4.48955e-011 8.88542e-027   
     length 3.10567   
     axis 180 30 90   XYZ
    dof rx
    limits (-10.0 170.0)
  end
  begin
     id 27 
     name rwrist
     direction -1 -4.48994e-011 1.5779e-026   
     length 1.55283   
     axis -1.15221e-014 -90 -90   XYZ
    dof ry
    limits (-180.0 0.0)
  end
  begin
     id 28
     name rhand
     direction -1 -4.48891e-011 3.1558e-026   
     length 0.498676   
     axis -2.01367e-014 -90 -90   XYZ
    dof rx rz
    limits (-90.0 90.0)
           (-45.0 45.0)
  end
  begin
     id 29
     name rfingers
     direction -1 -4.48972e-011 6.31161e-026   
     length 0.402045   
     axis -4.02734e-014 -90 -90   XYZ
    dof rx
    limits (0.0 90.0)
  end
  begin
     id 30
     name rthumb
     direction -0.707107 -6.34849e-011 0.707107   
     length 0.577259   
     axis -90 -45 -2.85299e-015   XYZ
    dof rx rz
    limits (-45.0 45.0)
           (-45.0 45.0)
  end
:hierarchy
  begin
    root lhipjoint rhipjoint lowerback
    lhipjoint lfemur
    lfemur ltibia
    ltibia lfoot
    lfoot ltoes
    rhipjoint rfemur
    rfemur rtibia
    rtibia rfoot
    rfoot rtoes
    lowerback upperback
    upperback thorax
    thorax lowerneck lclavicle rclavicle
    lowerneck upperneck
    upperneck head
    lclavicle lhumerus
    lhumerus lradius
    lradius lwrist
    lwrist lhand lthumb
    lhand lfingers
    rclavicle rhumerus
    rhumerus rradius
    rradius rwrist
    rwrist rhand rthumb
    rhand rfingers
  end

#!OML:ASF H:\Pregnant\Project 1\Capture day 1\Session 1\femalepreg.ASF
:FULLY-SPECIFIED
:DEGREES
304
root 2.86433 6.2679 24.7058 118.861 -63.933 -101.688
lowerback 32.2763 1.79259 10.3377
upperback 9.84607 3.53059 -6.06768
thorax -4.83097 1.44244 -13.2113
lowerneck -34.444 7.13233 11.2463
upperneck -3.20598 3.47334 3.16555
head 3.98783 1.43602 -0.23462
rclavicle -3.49861e-014 8.11041e-014
rhumerus 18.2129 34.9674 -88.9791
rradius 22.7718
rwrist -1.40851
rhand -53.2905 -18.2169
rfingers 7.12502
rthumb -25.744 -46.4955
lclavicle -3.49861e-014 8.11041e-014
lhumerus 0.0567959 6.04402 55.2199
lradius 29.1151
lwrist 43.8911
lhand -51.1702 -4.90221
lfingers 7.12502
lthumb -23.7118 23.6551
rfemur -97.1141 -55.7686 26.3428
rtibia 141.98
rfoot -28.9762 56.3564
rtoes -10.3775
lfemur 89.3286 137.664 147.513
ltibia 142.974
lfoot 50.5059 -49.3344
ltoes 54.7145
305
root 2.85999 6.21854 24.7228 118.631 -63.7981 -102.168
lowerback 32.7507 1.69817 10.4557
upperback 9.7792 3.4915 -5.95172
thorax -5.09143 1.39617 -13.1489
lowerneck -34.4032 7.12159 11.2527
upperneck -3.10151 3.45281 3.23113
head 4.01725 1.43693 -0.215365
rclavicle -6.04305e-014 6.99722e-014
rhumerus 17.8386 35.3044 -89.0294
rradius 22.7369
rwrist -1.27139
rhand -53.2173 -18.1132
rfingers 7.12502
rthumb -25.6738 -46.4019
lclavicle -6.04305e-014 6.99722e-014
lhumerus -0.685802 6.18441 55.3638
lradius 29.2002
lwrist 43.8237
lhand -51.1358 -4.8873
lfingers 7.12502
lthumb -23.6789 23.6743
rfemur -96.1028 -56.5355 24.9618
rtibia 142.089
rfoot -27.1782 58.0394
rtoes -8.20721
lfemur 90.4924 134.786 147.879
ltibia 143.167
lfoot 50.0598 -47.5403
ltoes 54.12
306
root 2.85659 6.17401 24.7399 118.353 -63.6757 -102.667
lowerback 33.3332 1.61279 10.5337
upperback 9.71593 3.4585 -5.81955
thorax -5.38872 1.34751 -13.0497
lowerneck -34.3513 7.09111 11.2367
upperneck -2.99896 3.41998 3.28302
head 4.0446 1.43125 -0.199327
rclavicle 8.90555e-014 2.22639e-014
rhumerus 17.4843 35.6846 -89.0132
rradius 22.7069
rwrist -1.17514
rhand -53.1326 -18.0207
rfingers 7.12502
rthumb -25.5927 -46.3211
lclavicle 8.90555e-014 2.22639e-014
lhumerus -1.41551 6.35273 55.5412
lradius 29.2826
lwrist 43.7536
lhand -51.1166 -4.9284
lfingers 7.12502
lthumb -23.6604 23.6356
rfemur -94.8201 -57.0737 23.3522
rtibia 142.142
rfoot -25.0118 59.6198
rtoes -5.8807
lfemur 91.9229 131.565 148.56
ltibia 143.345
lfoot 50.0758 -46.0214
ltoes 53.7629
307
root 2.85439 6.13338 24.7559 118.051 -63.5605 -103.182
lowerback 33.9824 1.54282 10.5697
upperback 9.65892 3.4364 -5.66917
thorax -5.70148 1.30093 -12.9107
lowerneck -34.2805 7.04352 11.1905
upperneck -2.91321 3.38238 3.32883
head 4.06404 1.42224 -0.182206
rclavicle 9.22361e-014 4.77083e-015
rhumerus 17.1667 36.1219 -88.918
rradius 22.6912
rwrist -1.14005
rhand -53.0684 -17.978
rfingers 7.12502
rthumb -25.5312 -46.2872
lclavicle 9.22361e-014 4.77083e-015
lhumerus -2.12465 6.52047 55.7429
lradius 29.3638
lwrist 43.7072
lhand -51.1225 -5.01502
lfingers 7.12502
lthumb -23.6661 23.5482
rfemur -93.3486 -57.3594 21.5813
rtibia 142.156
rfoot -22.0433 61.1524
rtoes -2.96089
lfemur 93.6298 131.04 149.597
ltibia 143.512
lfoot 51.8092 -43.4329
ltoes 53.8151
308
root 2.85362 6.09538 24.7698 117.736 -63.4553 -103.694
lowerback 34.6541 1.49275 10.5676
upperback 9.61302 3.42833 -5.50228
thorax -6.00585 1.26054 -12.7361
lowerneck -34.1981 6.9813 11.1138
upperneck -2.85393 3.34149 3.37107
head 4.07313 1.40994 -0.162935
rclavicle -2.54444e-014 1.43125e-014
rhumerus 16.9049 36.6265 -88.7227
rradius 22.7069
rwrist -1.19191
rhand -52.9797 -18.0078
rfingers 7.12502
rthumb -25.4463 -46.3292
lclavicle -2.54444e-014 1.43125e-014
lhumerus -2.79236 6.65895 55.9628
lradius 29.4413
lwrist 43.6896
lhand -51.1583 -5.09087
lfingers 7.12502
lthumb -23.7005 23.4679
rfemur -91.8085 -57.4525 19.765
rtibia 142.157
rfoot -18.6105 62.4965
rtoes 0.158415
lfemur 95.3975 130.535 150.704
ltibia 143.665
lfoot 53.7823 -40.9877
ltoes 54.2841
309
root 2.85442 6.05923 24.7809 117.399 -63.3616 -104.172
lowerback 35.3213 1.45784 10.5425
upperback 9.57761 3.43112 -5.32486
thorax -6.2919 1.22634 -12.5396
lowerneck -34.1018 6.90438 11.0214
upperneck -2.82408 3.29147 3.40847
head 4.07062 1.39093 -0.144885
rclavicle -1.27222e-014 -1.59028e-014
rhumerus 16.6943 37.1464 -88.4663
rradius 22.7389
rwrist -1.29125
rhand -52.8852 -18.085
rfingers 7.12502
rthumb -25.3558 -46.4192
lclavicle -1.27222e-014 -1.59028e-014
lhumerus -3.41432 6.73903 56.1833
lradius 29.5215
lwrist 43.7105
lhand -51.1988 -5.12335
lfingers 7.12502
lthumb -23.7393 23.4304
rfemur -90.2824 -57.451 17.9944
rtibia 142.165
rfoot -15.1962 63.5893
rtoes 3.00864
lfemur 97.1495 130.076 151.826
ltibia 143.802
lfoot 55.739 -38.6867
ltoes 54.9744
310
root 2.85667 6.02494 24.7892 117.027 -63.2773 -104.598
lowerback 35.9771 1.43459 10.5118
upperback 9.55777 3.44355 -5.14679
thorax -6.55049 1.19883 -12.3414
lowerneck -34.0156 6.82066 10.9061
upperneck -2.82857 3.23867 3.46187
head 4.05734 1.36932 -0.118775
rclavicle 4.13472e-014 -1.59028e-013
rhumerus 16.5296 37.6104 -88.1922
rradius 22.7746
rwrist -1.39487
rhand -52.7806 -18.1837
rfingers 7.12502
rthumb -25.2556 -46.5322
lclavicle 4.13472e-014 -1.59028e-013
lhumerus -3.96411 6.76522 56.3945
lradius 29.5964
lwrist 43.7535
lhand -51.2327 -5.10015
lfingers 7.12502
lthumb -23.7718 23.4494
rfemur -88.7896 -57.4125 16.3085
rtibia 142.187
rfoot -12.2887 64.4218
rtoes 5.23035
lfemur 98.8638 129.657 152.951
ltibia 143.927
lfoot 57.3868 -36.5798
ltoes 55.6382
311
root 2.86044 5.99214 24.7949 116.608 -63.2108 -104.942
lowerback 36.6025 1.41205 10.4808
upperback 9.54709 3.45409 -4.97148
thorax -6.7848 1.17279 -12.1443
lowerneck -33.9311 6.73098 10.7957
upperneck -2.84827 3.1756 3.51648
head 4.03903 1.34151 -0.0944176
rclavicle 2.8625e-014 3.02153e-014
rhumerus 16.3835 37.9989 -87.9329
rradius 22.8198
rwrist -1.4833
rhand -52.6586 -18.2753
rfingers 7.12502
rthumb -25.1387 -46.6401
lclavicle 2.8625e-014 3.02153e-014
lhumerus -4.45867 6.76636 56.5903
lradius 29.6707
lwrist 43.7974
lhand -51.2351 -5.00633
lfingers 7.12502
lthumb -23.7741 23.5429
rfemur -87.3643 -57.4296 14.727
rtibia 142.231
rfoot -10.1046 65.0736
rtoes 6.74709
lfemur 100.479 129.298 154.028
ltibia 144.044
lfoot 58.5488 -34.6866
ltoes 56.0656
312
root 2.86591 5.96004 24.7985 116.127 -63.1695 -105.153
lowerback 37.2502 1.35961 10.4791
upperback 9.44907 3.44845 -4.82339
thorax -6.99326 1.14251 -11.9699
lowerneck -33.8603 6.63073 10.6862
upperneck -2.85794 3.09388 3.59055
head 4.02507 1.3066 -0.0655768
rclavicle 5.40694e-014 -4.77083e-015
rhumerus 16.226 38.2598 -87.7455
rradius 22.8574
rwrist -1.50924
rhand -52.5293 -18.3039
rfingers 7.12502
rthumb -25.0148 -46.6861
lclavicle 5.40694e-014 -4.77083e-015
lhumerus -4.91391 6.71845 56.7471
lradius 29.7563
lwrist 43.8725
lhand -51.2169 -4.8864
lfingers 7.12502
lthumb -23.7566 23.6651
rfemur -86.0656 -57.6074 13.2832
rtibia 142.309
rfoot -8.90374 65.6239
rtoes 7.38385
lfemur 101.9 129.019 154.991
ltibia 144.176
lfoot 59.1359 -32.977
ltoes 56.1246
313
root 2.87306 5.92883 24.8005 115.576 -63.1564 -105.227
lowerback 37.7468 1.29455 10.5009
upperback 9.43582 3.42055 -4.67485
thorax -7.18743 1.10475 -11.8148
lowerneck -33.7936 6.52745 10.5929
upperneck -2.84387 2.99992 3.67473
head 4.01935 1.26803 -0.0367573
rclavicle -2.54444e-014 3.18055e-015
rhumerus 16.0361 38.3767 -87.6605
rradius 22.8674
rwrist -1.44113
rhand -52.3975 -18.2584
rfingers 7.12502
rthumb -24.8885 -46.6581
lclavicle -2.54444e-014 3.18055e-015
lhumerus -5.33426 6.68986 56.8867
lradius 29.8324
lwrist 43.9178
lhand -51.1913 -4.79354
lfingers 7.12502
lthumb -23.732 23.7611
rfemur -84.8589 -57.9572 11.9319
rtibia 142.411
rfoot -8.42203 66.143
rtoes 7.42644
lfemur 103.118 128.816 155.82
ltibia 144.32
lfoot 59.1539 -31.4495
ltoes 55.7693
